<svg xmlns="http://www.w3.org/2000/svg" xmlns:xlink="http://www.w3.org/1999/xlink" width="31.764" height="23.823" viewBox="0 0 31.764 23.823">
  <defs>
    <linearGradient id="linear-gradient" x1="0.5" x2="0.5" y2="1" gradientUnits="objectBoundingBox">
      <stop offset="0" stop-color="#08b8f7"/>
      <stop offset="1" stop-color="#0566eb"/>
    </linearGradient>
  </defs>
  <path id="cloud-hosting" d="M643.137,771a6.842,6.842,0,0,1,6.065,3.693,11.268,11.268,0,0,1,4.6-.975,10.56,10.56,0,1,1,0,21.105H641a7.861,7.861,0,0,1-8-7.712,7.65,7.65,0,0,1,3.8-6.562,6.956,6.956,0,0,1-.515-2.635A6.883,6.883,0,0,1,643.137,771Zm-4.637,6.914a4.694,4.694,0,0,1,4.637-4.748,4.632,4.632,0,0,1,4.149,2.624,10.7,10.7,0,0,0-3.3,3.8q-.08.154-.154.311-.148-.054-.3-.1a8.336,8.336,0,0,0-4.7-.107A4.823,4.823,0,0,1,638.5,777.914Z" transform="translate(-633 -771)" fill-rule="evenodd" fill="url(#linear-gradient)"/>
</svg>
