<svg xmlns="http://www.w3.org/2000/svg" xmlns:xlink="http://www.w3.org/1999/xlink" width="25.412" height="25.412" viewBox="0 0 25.412 25.412">
  <defs>
    <linearGradient id="linear-gradient" x1="0.5" x2="0.5" y2="1" gradientUnits="objectBoundingBox">
      <stop offset="0" stop-color="#08b8f7"/>
      <stop offset="1" stop-color="#0566eb"/>
    </linearGradient>
  </defs>
  <g id="Domain" transform="translate(-338.29 -458.995)">
    <path id="Path_309" data-name="Path 309" d="M646.328,867.22a8.324,8.324,0,0,0-3.805,0,4.431,4.431,0,0,0-3.3,3.3,8.324,8.324,0,0,0,0,3.805,4.432,4.432,0,0,0,3.3,3.3,8.338,8.338,0,0,0,3.805,0,4.433,4.433,0,0,0,3.3-3.3,8.338,8.338,0,0,0,0-3.805A4.432,4.432,0,0,0,646.328,867.22Z" transform="translate(-300.71 -408.005)" fill="url(#linear-gradient)"/>
    <path id="Path_311" data-name="Path 311" d="M646.328,894.721a8.34,8.34,0,0,0-3.805,0,4.432,4.432,0,0,0-3.3,3.3,8.324,8.324,0,0,0,0,3.805,4.432,4.432,0,0,0,3.3,3.3,8.324,8.324,0,0,0,3.805,0,4.432,4.432,0,0,0,3.3-3.3,8.338,8.338,0,0,0,0-3.805A4.433,4.433,0,0,0,646.328,894.721Z" transform="translate(-300.71 -420.947)" fill="url(#linear-gradient)"/>
    <path id="Path_313" data-name="Path 313" d="M673.83,867.22a8.324,8.324,0,0,0-3.805,0,4.432,4.432,0,0,0-3.3,3.3,8.339,8.339,0,0,0,0,3.805,4.433,4.433,0,0,0,3.3,3.3,8.338,8.338,0,0,0,3.805,0,4.432,4.432,0,0,0,3.3-3.3,8.324,8.324,0,0,0,0-3.805A4.432,4.432,0,0,0,673.83,867.22Z" transform="translate(-313.652 -408.005)" fill="url(#linear-gradient)"/>
    <path id="Path_315" data-name="Path 315" d="M673.83,894.721a8.34,8.34,0,0,0-3.805,0,4.433,4.433,0,0,0-3.3,3.3,8.339,8.339,0,0,0,0,3.805,4.432,4.432,0,0,0,3.3,3.3,8.324,8.324,0,0,0,3.805,0,4.432,4.432,0,0,0,3.3-3.3,8.324,8.324,0,0,0,0-3.805A4.432,4.432,0,0,0,673.83,894.721Z" transform="translate(-313.652 -420.947)" fill="url(#linear-gradient)"/>
  </g>
</svg>
