<svg xmlns="http://www.w3.org/2000/svg" xmlns:xlink="http://www.w3.org/1999/xlink" width="288" height="222" viewBox="0 0 288 222">
  <defs>
    <clipPath id="clip-path">
      <rect id="Rectangle_2" data-name="Rectangle 2" width="288" height="222" transform="translate(0 0.353)" fill="#fff"/>
    </clipPath>
  </defs>
  <g id="server" transform="translate(0 -0.353)" clip-path="url(#clip-path)">
    <path id="Path_1" data-name="Path 1" d="M76.491,131.578a20.566,20.566,0,0,1,31.15-15.457,19.246,19.246,0,0,1,30.1,12.946,20.464,20.464,0,0,1-4.623,40.4h-49.2a19.669,19.669,0,0,1-7.419-37.886Z" transform="translate(-30.238 -73.645)" fill="#66c5ff"/>
    <path id="Path_2" data-name="Path 2" d="M151.59,159.392a17.471,17.471,0,0,0,0-7.108l-2.781-.394a14.046,14.046,0,0,0-1.355-3.271l1.684-2.252a17.261,17.261,0,0,0-5.017-5.021l-2.244,1.671a14.484,14.484,0,0,0-3.275-1.363l-.387-2.776a17.5,17.5,0,0,0-7.117,0l-.394,2.776a14.484,14.484,0,0,0-3.275,1.363l-2.251-1.685a17.481,17.481,0,0,0-5.017,5.02l1.685,2.26a14.025,14.025,0,0,0-1.355,3.271l-2.781.394a17.454,17.454,0,0,0,0,7.108l2.781.4a13.95,13.95,0,0,0,1.362,3.263l-1.691,2.266a17.476,17.476,0,0,0,5.017,5.021l2.251-1.693A14.437,14.437,0,0,0,130.7,170l.394,2.79a17.462,17.462,0,0,0,7.11,0L138.6,170a14.437,14.437,0,0,0,3.275-1.355l2.251,1.693a17.476,17.476,0,0,0,5.017-5.021l-1.691-2.259a14.147,14.147,0,0,0,1.362-3.271Zm-16.952,4.835a8.349,8.349,0,1,1,3.2-.637A8.352,8.352,0,0,1,134.639,164.227Z" transform="translate(-55.221 -85.83)" fill="#fff" opacity="0.6"/>
    <path id="Path_3" data-name="Path 3" d="M288.294,94.976a20.574,20.574,0,0,1,31.151-15.457,19.253,19.253,0,0,1,30.1,12.954,20.464,20.464,0,0,1-4.63,40.4h-49.2a19.676,19.676,0,0,1-7.425-37.893Z" transform="translate(-129.91 -56.423)" fill="#66c5ff"/>
    <g id="Group_1" data-name="Group 1" transform="translate(182.03 51.678)" opacity="0.6">
      <path id="Path_4" data-name="Path 4" d="M343.838,140.92c0-2.761,1.477-4.3,3.455-4.3s3.455,1.571,3.455,4.3-1.477,4.3-3.455,4.3S343.838,143.681,343.838,140.92Zm5.7,0c0-2.152-.925-3.256-2.244-3.256s-2.25,1.091-2.25,3.256.924,3.256,2.25,3.256,2.236-1.09,2.236-3.256Z" transform="translate(-343.838 -136.616)" fill="#fff"/>
      <path id="Path_5" data-name="Path 5" d="M359.083,140.92c0-2.761,1.477-4.3,3.462-4.3s3.448,1.571,3.448,4.3-1.477,4.3-3.448,4.3S359.083,143.681,359.083,140.92Zm5.7,0c0-2.152-.917-3.256-2.236-3.256s-2.251,1.091-2.251,3.256.917,3.256,2.251,3.256S364.782,143.086,364.782,140.92Z" transform="translate(-351.012 -136.616)" fill="#fff"/>
      <path id="Path_6" data-name="Path 6" d="M376.465,136.738v8.478h-1.2v-7.423h-1.913v-1.055Z" transform="translate(-357.728 -136.673)" fill="#fff"/>
      <path id="Path_7" data-name="Path 7" d="M382.736,140.92c0-2.761,1.477-4.3,3.462-4.3s3.448,1.571,3.448,4.3-1.477,4.3-3.448,4.3S382.736,143.681,382.736,140.92Zm5.7,0c0-2.152-.917-3.256-2.237-3.256s-2.251,1.091-2.251,3.256.917,3.256,2.251,3.256S388.435,143.086,388.435,140.92Z" transform="translate(-362.143 -136.616)" fill="#fff"/>
      <path id="Path_8" data-name="Path 8" d="M400.123,136.738v8.478h-1.2v-7.423H397.02v-1.055Z" transform="translate(-368.865 -136.673)" fill="#fff"/>
      <path id="Path_9" data-name="Path 9" d="M406.375,140.92c0-2.761,1.477-4.3,3.462-4.3s3.447,1.571,3.447,4.3-1.477,4.3-3.447,4.3S406.375,143.681,406.375,140.92Zm5.7,0c0-2.152-.917-3.256-2.236-3.256s-2.251,1.091-2.251,3.256.917,3.256,2.251,3.256S412.074,143.086,412.074,140.92Z" transform="translate(-373.268 -136.616)" fill="#fff"/>
      <path id="Path_10" data-name="Path 10" d="M423.756,136.738v8.478h-1.2v-7.423h-1.913v-1.055Z" transform="translate(-379.983 -136.673)" fill="#fff"/>
    </g>
    <path id="Path_11" data-name="Path 11" d="M94.332,285.281a21.89,21.89,0,0,0-15.289-20.872,20.6,20.6,0,0,0-31.868-14.567A20.615,20.615,0,0,0,15.3,264.408a21.885,21.885,0,0,0,6.58,42.749H72.943a21.877,21.877,0,0,0,21.389-21.877Z" transform="translate(-0.012 -136.593)" fill="#24a7ff"/>
    <path id="Path_12" data-name="Path 12" d="M46.989,249.783A20.608,20.608,0,0,0,15.3,264.466a21.884,21.884,0,0,0,6.58,42.748H37.213Z" transform="translate(-0.012 -136.621)" fill="#3bb0ff"/>
    <path id="Path_13" data-name="Path 13" d="M140.066,341.048H84.281V345.2h55.786Z" transform="translate(-39.662 -181.142)" fill="#3d4959"/>
    <path id="Path_14" data-name="Path 14" d="M140.066,303.017H84.281v4.153h55.786Z" transform="translate(-39.662 -163.245)" fill="#3d4959"/>
    <path id="Path_15" data-name="Path 15" d="M137.572,346.955H76.554a2.875,2.875,0,0,0-2.874,2.876v12.918a2.875,2.875,0,0,0,2.874,2.876h61.018a2.875,2.875,0,0,0,2.874-2.876V349.831A2.875,2.875,0,0,0,137.572,346.955Z" transform="translate(-34.673 -183.922)" fill="#d6e0ea"/>
    <path id="Path_16" data-name="Path 16" d="M101.4,346.955,98.357,365.6H76.56a2.869,2.869,0,0,1-2.867-2.869V349.824a2.868,2.868,0,0,1,2.867-2.869Z" transform="translate(-34.68 -183.922)" fill="#ededed"/>
    <path id="Path_17" data-name="Path 17" d="M139.99,365.168v-10.45H81.438v10.45Z" transform="translate(-38.324 -187.575)" fill="#3d4959"/>
    <path id="Path_18" data-name="Path 18" d="M180.121,362.974a1.8,1.8,0,1,1-.529-1.268,1.8,1.8,0,0,1,.529,1.268Z" transform="translate(-83.071 -190.617)" fill="#24a7ff"/>
    <path id="Path_19" data-name="Path 19" d="M165.9,363.2a1.542,1.542,0,1,1-.452-1.091,1.542,1.542,0,0,1,.452,1.091Z" transform="translate(-76.623 -190.84)" fill="#24a7ff"/>
    <path id="Path_20" data-name="Path 20" d="M151.714,363.2a1.542,1.542,0,1,1-.452-1.091,1.542,1.542,0,0,1,.452,1.091Z" transform="translate(-69.945 -190.84)" fill="#fff"/>
    <path id="Path_21" data-name="Path 21" d="M137.525,363.2a1.542,1.542,0,1,1-.452-1.091,1.542,1.542,0,0,1,.452,1.091Z" transform="translate(-63.268 -190.84)" fill="#24a7ff"/>
    <path id="Path_22" data-name="Path 22" d="M123.336,363.2a1.542,1.542,0,1,1-.452-1.091,1.542,1.542,0,0,1,.452,1.091Z" transform="translate(-56.591 -190.84)" fill="#fff"/>
    <path id="Path_23" data-name="Path 23" d="M137.572,308.328H76.554A2.875,2.875,0,0,0,73.68,311.2v12.918A2.875,2.875,0,0,0,76.554,327h61.018a2.876,2.876,0,0,0,2.874-2.876V311.2A2.876,2.876,0,0,0,137.572,308.328Z" transform="translate(-34.673 -165.744)" fill="#d6e0ea"/>
    <path id="Path_24" data-name="Path 24" d="M104.722,308.328l-3.032,18.649H76.56a2.868,2.868,0,0,1-2.867-2.869V311.2a2.869,2.869,0,0,1,2.867-2.869Z" transform="translate(-34.68 -165.744)" fill="#ededed"/>
    <path id="Path_25" data-name="Path 25" d="M139.99,326.542v-10.45H81.438v10.45Z" transform="translate(-38.324 -169.398)" fill="#3d4959"/>
    <path id="Path_26" data-name="Path 26" d="M137.572,270.3H76.554a2.875,2.875,0,0,0-2.874,2.876v12.918a2.875,2.875,0,0,0,2.874,2.876h61.018a2.876,2.876,0,0,0,2.874-2.876V273.174A2.875,2.875,0,0,0,137.572,270.3Z" transform="translate(-34.673 -147.848)" fill="#d6e0ea"/>
    <path id="Path_27" data-name="Path 27" d="M108,270.3l-3.039,18.649H76.56a2.868,2.868,0,0,1-2.867-2.869V273.167A2.868,2.868,0,0,1,76.56,270.3Z" transform="translate(-34.68 -147.848)" fill="#ededed"/>
    <path id="Path_28" data-name="Path 28" d="M140,288.525v-10.45H81.451v10.45Z" transform="translate(-38.33 -151.507)" fill="#3d4959"/>
    <path id="Path_29" data-name="Path 29" d="M178.321,326.154a1.8,1.8,0,1,0-1.8-1.8A1.8,1.8,0,0,0,178.321,326.154Z" transform="translate(-83.07 -172.439)" fill="#24a7ff"/>
    <path id="Path_30" data-name="Path 30" d="M165.9,324.584a1.542,1.542,0,1,1-.452-1.091,1.542,1.542,0,0,1,.452,1.091Z" transform="translate(-76.623 -172.669)" fill="#24a7ff"/>
    <path id="Path_31" data-name="Path 31" d="M151.714,324.584a1.542,1.542,0,1,1-.452-1.091,1.542,1.542,0,0,1,.452,1.091Z" transform="translate(-69.945 -172.669)" fill="#fff"/>
    <path id="Path_32" data-name="Path 32" d="M137.525,324.584a1.542,1.542,0,1,1-.452-1.091,1.542,1.542,0,0,1,.452,1.091Z" transform="translate(-63.268 -172.669)" fill="#24a7ff"/>
    <path id="Path_33" data-name="Path 33" d="M123.336,324.584a1.542,1.542,0,1,1-.452-1.091,1.542,1.542,0,0,1,.452,1.091Z" transform="translate(-56.591 -172.669)" fill="#fff"/>
    <path id="Path_34" data-name="Path 34" d="M180.121,286.338a1.8,1.8,0,1,1-.527-1.273,1.8,1.8,0,0,1,.527,1.273Z" transform="translate(-83.071 -154.548)" fill="#24a7ff"/>
    <path id="Path_35" data-name="Path 35" d="M165.9,286.567a1.542,1.542,0,1,1-.452-1.091,1.542,1.542,0,0,1,.452,1.091Z" transform="translate(-76.623 -154.778)" fill="#fff"/>
    <path id="Path_36" data-name="Path 36" d="M151.714,286.567a1.542,1.542,0,1,1-.452-1.091,1.542,1.542,0,0,1,.452,1.091Z" transform="translate(-69.945 -154.778)" fill="#fff"/>
    <path id="Path_37" data-name="Path 37" d="M137.525,286.567a1.542,1.542,0,1,1-.452-1.091,1.542,1.542,0,0,1,.452,1.091Z" transform="translate(-63.268 -154.778)" fill="#24a7ff"/>
    <path id="Path_38" data-name="Path 38" d="M123.336,286.567a1.542,1.542,0,1,1-.452-1.091,1.542,1.542,0,0,1,.452,1.091Z" transform="translate(-56.591 -154.778)" fill="#24a7ff"/>
    <path id="Path_39" data-name="Path 39" d="M280.069,301.3A17.285,17.285,0,0,0,268,284.8a16.267,16.267,0,0,0-25.166-11.476A16.264,16.264,0,0,0,217.675,284.8a17.28,17.28,0,0,0,5.189,33.762h40.325a17.258,17.258,0,0,0,16.88-17.264Z" transform="translate(-96.749 -147.984)" fill="#24a7ff"/>
    <path id="Path_40" data-name="Path 40" d="M242.69,273.221a16.265,16.265,0,0,0-25.015,11.591,17.279,17.279,0,0,0,5.189,33.761h12.149Z" transform="translate(-96.749 -147.981)" fill="#3bb0ff"/>
    <path id="Path_41" data-name="Path 41" d="M279.276,397.314H223.49v4.153h55.786Z" transform="translate(-105.173 -207.621)" fill="#3d4959"/>
    <path id="Path_42" data-name="Path 42" d="M279.276,359.3H223.49v4.153h55.786Z" transform="translate(-105.173 -189.73)" fill="#3d4959"/>
    <path id="Path_43" data-name="Path 43" d="M276.781,403.221H215.763a2.876,2.876,0,0,0-2.875,2.876v12.918a2.876,2.876,0,0,0,2.875,2.876h61.018a2.876,2.876,0,0,0,2.874-2.876V406.1A2.876,2.876,0,0,0,276.781,403.221Z" transform="translate(-100.184 -210.4)" fill="#d6e0ea"/>
    <path id="Path_44" data-name="Path 44" d="M240.612,403.221l-3.039,18.649h-21.79A2.868,2.868,0,0,1,212.916,419V406.09a2.869,2.869,0,0,1,2.867-2.869Z" transform="translate(-100.197 -210.4)" fill="#ededed"/>
    <path id="Path_45" data-name="Path 45" d="M279.186,421.448V411H220.633v10.451Z" transform="translate(-103.829 -214.06)" fill="#3d4959"/>
    <path id="Path_46" data-name="Path 46" d="M319.316,419.235a1.8,1.8,0,1,1-.129-.7A1.8,1.8,0,0,1,319.316,419.235Z" transform="translate(-148.575 -217.076)" fill="#24a7ff"/>
    <path id="Path_47" data-name="Path 47" d="M305.1,419.49a1.543,1.543,0,1,1-.452-1.09,1.544,1.544,0,0,1,.452,1.09Z" transform="translate(-142.127 -217.331)" fill="#24a7ff"/>
    <path id="Path_48" data-name="Path 48" d="M290.923,419.49a1.543,1.543,0,1,1-.452-1.09,1.544,1.544,0,0,1,.452,1.09Z" transform="translate(-135.456 -217.331)" fill="#fff"/>
    <path id="Path_49" data-name="Path 49" d="M276.72,419.49a1.543,1.543,0,1,1-.452-1.09,1.544,1.544,0,0,1,.452,1.09Z" transform="translate(-128.773 -217.331)" fill="#24a7ff"/>
    <path id="Path_50" data-name="Path 50" d="M262.491,419.49a1.542,1.542,0,1,1-.451-1.09,1.543,1.543,0,0,1,.451,1.09Z" transform="translate(-122.076 -217.331)" fill="#fff"/>
    <path id="Path_51" data-name="Path 51" d="M276.781,364.6H215.763a2.875,2.875,0,0,0-2.875,2.876v12.918a2.875,2.875,0,0,0,2.875,2.876h61.018a2.875,2.875,0,0,0,2.874-2.876V367.471A2.875,2.875,0,0,0,276.781,364.6Z" transform="translate(-100.184 -192.223)" fill="#d6e0ea"/>
    <path id="Path_52" data-name="Path 52" d="M243.924,364.568l-3.032,18.649H215.769a2.869,2.869,0,0,1-2.867-2.869V367.437a2.868,2.868,0,0,1,2.867-2.869Z" transform="translate(-100.19 -192.21)" fill="#ededed"/>
    <path id="Path_53" data-name="Path 53" d="M279.2,382.808v-10.45H220.646v10.45Z" transform="translate(-103.835 -195.876)" fill="#3d4959"/>
    <path id="Path_54" data-name="Path 54" d="M276.781,326.578H215.763a2.876,2.876,0,0,0-2.875,2.876v12.918a2.876,2.876,0,0,0,2.875,2.876h61.018a2.876,2.876,0,0,0,2.874-2.876V329.454A2.876,2.876,0,0,0,276.781,326.578Z" transform="translate(-100.184 -174.333)" fill="#d6e0ea"/>
    <path id="Path_55" data-name="Path 55" d="M247.206,326.632l-3.018,18.649h-28.42a2.868,2.868,0,0,1-2.867-2.869V329.5a2.869,2.869,0,0,1,2.867-2.869Z" transform="translate(-100.19 -174.358)" fill="#ededed"/>
    <path id="Path_56" data-name="Path 56" d="M279.185,344.791v-10.45H220.633v10.45Z" transform="translate(-103.829 -177.986)" fill="#3d4959"/>
    <path id="Path_57" data-name="Path 57" d="M319.316,380.581a1.794,1.794,0,1,1-.135-.69A1.8,1.8,0,0,1,319.316,380.581Z" transform="translate(-148.575 -198.898)" fill="#24a7ff"/>
    <path id="Path_58" data-name="Path 58" d="M305.1,380.81a1.542,1.542,0,1,1-.452-1.091,1.542,1.542,0,0,1,.452,1.091Z" transform="translate(-142.127 -199.128)" fill="#24a7ff"/>
    <path id="Path_59" data-name="Path 59" d="M290.923,380.81a1.542,1.542,0,1,1-.452-1.091,1.542,1.542,0,0,1,.452,1.091Z" transform="translate(-135.456 -199.128)" fill="#fff"/>
    <path id="Path_60" data-name="Path 60" d="M276.72,380.81a1.542,1.542,0,1,1-.452-1.091,1.542,1.542,0,0,1,.452,1.091Z" transform="translate(-128.773 -199.128)" fill="#24a7ff"/>
    <path id="Path_61" data-name="Path 61" d="M262.491,380.81a1.541,1.541,0,1,1-.451-1.091,1.542,1.542,0,0,1,.451,1.091Z" transform="translate(-122.076 -199.128)" fill="#fff"/>
    <path id="Path_62" data-name="Path 62" d="M319.316,342.645a1.8,1.8,0,1,1-.527-1.273A1.8,1.8,0,0,1,319.316,342.645Z" transform="translate(-148.575 -181.046)" fill="#24a7ff"/>
    <path id="Path_63" data-name="Path 63" d="M305.1,342.874a1.542,1.542,0,1,1-.452-1.091,1.545,1.545,0,0,1,.452,1.091Z" transform="translate(-142.127 -181.276)" fill="#fff"/>
    <path id="Path_64" data-name="Path 64" d="M290.923,342.874a1.542,1.542,0,1,1-.452-1.091,1.545,1.545,0,0,1,.452,1.091Z" transform="translate(-135.456 -181.276)" fill="#fff"/>
    <path id="Path_65" data-name="Path 65" d="M276.72,342.874a1.542,1.542,0,1,1-.452-1.091,1.545,1.545,0,0,1,.452,1.091Z" transform="translate(-128.773 -181.276)" fill="#24a7ff"/>
    <path id="Path_66" data-name="Path 66" d="M262.491,342.874a1.541,1.541,0,1,1-.451-1.091,1.544,1.544,0,0,1,.451,1.091Z" transform="translate(-122.076 -181.276)" fill="#24a7ff"/>
    <path id="Path_67" data-name="Path 67" d="M460.171,285.281a21.89,21.89,0,0,0-15.289-20.872,20.609,20.609,0,0,0-31.874-14.567,20.609,20.609,0,0,0-31.868,14.567,21.885,21.885,0,0,0,6.58,42.749h51.062a21.877,21.877,0,0,0,21.389-21.877Z" transform="translate(-172.174 -136.593)" fill="#24a7ff"/>
    <path id="Path_68" data-name="Path 68" d="M412.828,249.783a20.609,20.609,0,0,0-31.688,14.683,21.884,21.884,0,0,0,6.58,42.748h15.36Z" transform="translate(-172.174 -136.621)" fill="#3bb0ff"/>
    <path id="Path_69" data-name="Path 69" d="M418.471,341.048H362.685V345.2h55.786Z" transform="translate(-170.677 -181.142)" fill="#3d4959"/>
    <path id="Path_70" data-name="Path 70" d="M418.471,303.017H362.685v4.153h55.786Z" transform="translate(-170.677 -163.245)" fill="#3d4959"/>
    <path id="Path_71" data-name="Path 71" d="M415.976,346.955H354.958a2.875,2.875,0,0,0-2.874,2.876v12.918a2.875,2.875,0,0,0,2.874,2.876h61.018a2.875,2.875,0,0,0,2.874-2.876V349.831A2.875,2.875,0,0,0,415.976,346.955Z" transform="translate(-165.689 -183.922)" fill="#d6e0ea"/>
    <path id="Path_72" data-name="Path 72" d="M379.8,346.955,376.754,365.6h-21.79a2.869,2.869,0,0,1-2.867-2.869V349.824a2.868,2.868,0,0,1,2.867-2.869Z" transform="translate(-165.695 -183.922)" fill="#ededed"/>
    <path id="Path_73" data-name="Path 73" d="M418.394,365.168v-10.45H359.842v10.45Z" transform="translate(-169.34 -187.575)" fill="#3d4959"/>
    <path id="Path_74" data-name="Path 74" d="M458.511,362.974a1.8,1.8,0,1,1-.53-1.268A1.8,1.8,0,0,1,458.511,362.974Z" transform="translate(-214.079 -190.617)" fill="#24a7ff"/>
    <path id="Path_75" data-name="Path 75" d="M442.752,364.766a1.542,1.542,0,1,0-1.541-1.542A1.541,1.541,0,0,0,442.752,364.766Z" transform="translate(-207.631 -190.852)" fill="#24a7ff"/>
    <path id="Path_76" data-name="Path 76" d="M430.1,363.2a1.541,1.541,0,1,1-.451-1.091,1.541,1.541,0,0,1,.451,1.091Z" transform="translate(-200.954 -190.84)" fill="#fff"/>
    <path id="Path_77" data-name="Path 77" d="M415.915,363.2a1.541,1.541,0,1,1-.451-1.091,1.542,1.542,0,0,1,.451,1.091Z" transform="translate(-194.277 -190.84)" fill="#24a7ff"/>
    <path id="Path_78" data-name="Path 78" d="M401.726,363.2a1.541,1.541,0,1,1-.451-1.091,1.542,1.542,0,0,1,.451,1.091Z" transform="translate(-187.6 -190.84)" fill="#fff"/>
    <path id="Path_79" data-name="Path 79" d="M415.976,308.328H354.958a2.875,2.875,0,0,0-2.874,2.876v12.918A2.875,2.875,0,0,0,354.958,327h61.018a2.876,2.876,0,0,0,2.874-2.876V311.2A2.876,2.876,0,0,0,415.976,308.328Z" transform="translate(-165.689 -165.744)" fill="#d6e0ea"/>
    <path id="Path_80" data-name="Path 80" d="M383.158,308.328l-3.039,18.649H355.032a2.868,2.868,0,0,1-2.867-2.869V311.2a2.868,2.868,0,0,1,2.867-2.869Z" transform="translate(-165.727 -165.744)" fill="#ededed"/>
    <path id="Path_81" data-name="Path 81" d="M418.394,326.542v-10.45H359.842v10.45Z" transform="translate(-169.34 -169.398)" fill="#3d4959"/>
    <path id="Path_82" data-name="Path 82" d="M415.976,270.3H354.958a2.875,2.875,0,0,0-2.874,2.876v12.918a2.875,2.875,0,0,0,2.874,2.876h61.018a2.876,2.876,0,0,0,2.874-2.876V273.174A2.875,2.875,0,0,0,415.976,270.3Z" transform="translate(-165.689 -147.848)" fill="#d6e0ea"/>
    <path id="Path_83" data-name="Path 83" d="M386.387,270.3l-3.039,18.649H354.964a2.868,2.868,0,0,1-2.867-2.869V273.167a2.868,2.868,0,0,1,2.867-2.869Z" transform="translate(-165.695 -147.848)" fill="#ededed"/>
    <path id="Path_84" data-name="Path 84" d="M418.394,288.511v-10.45H359.842v10.45Z" transform="translate(-169.34 -151.501)" fill="#3d4959"/>
    <path id="Path_85" data-name="Path 85" d="M458.511,324.354a1.8,1.8,0,1,1-.527-1.273,1.8,1.8,0,0,1,.527,1.273Z" transform="translate(-214.079 -172.439)" fill="#24a7ff"/>
    <path id="Path_86" data-name="Path 86" d="M444.293,324.584a1.541,1.541,0,1,1-.451-1.091,1.546,1.546,0,0,1,.451,1.091Z" transform="translate(-207.632 -172.669)" fill="#24a7ff"/>
    <path id="Path_87" data-name="Path 87" d="M430.1,324.584a1.541,1.541,0,1,1-.451-1.091,1.541,1.541,0,0,1,.451,1.091Z" transform="translate(-200.954 -172.669)" fill="#fff"/>
    <path id="Path_88" data-name="Path 88" d="M415.915,324.584a1.541,1.541,0,1,1-.451-1.091,1.542,1.542,0,0,1,.451,1.091Z" transform="translate(-194.277 -172.669)" fill="#24a7ff"/>
    <path id="Path_89" data-name="Path 89" d="M401.726,324.584a1.541,1.541,0,1,1-.451-1.091,1.542,1.542,0,0,1,.451,1.091Z" transform="translate(-187.6 -172.669)" fill="#fff"/>
    <path id="Path_90" data-name="Path 90" d="M458.511,286.338a1.8,1.8,0,1,1-.135-.69A1.782,1.782,0,0,1,458.511,286.338Z" transform="translate(-214.079 -154.548)" fill="#24a7ff"/>
    <path id="Path_91" data-name="Path 91" d="M444.293,286.567a1.541,1.541,0,1,1-.451-1.091,1.546,1.546,0,0,1,.451,1.091Z" transform="translate(-207.632 -154.778)" fill="#fff"/>
    <path id="Path_92" data-name="Path 92" d="M430.1,286.567a1.541,1.541,0,1,1-.451-1.091,1.541,1.541,0,0,1,.451,1.091Z" transform="translate(-200.954 -154.778)" fill="#fff"/>
    <path id="Path_93" data-name="Path 93" d="M415.915,286.567a1.541,1.541,0,1,1-.451-1.091,1.542,1.542,0,0,1,.451,1.091Z" transform="translate(-194.277 -154.778)" fill="#24a7ff"/>
    <path id="Path_94" data-name="Path 94" d="M401.726,286.567a1.541,1.541,0,1,1-.451-1.091,1.542,1.542,0,0,1,.451,1.091Z" transform="translate(-187.6 -154.778)" fill="#24a7ff"/>
    <path id="Path_95" data-name="Path 95" d="M178.3,39h97.415a6.316,6.316,0,0,1,6.315,6.319v58.4a7.528,7.528,0,0,1-7.526,7.531H179.508a7.531,7.531,0,0,1-7.562-7.531v-58.4A6.316,6.316,0,0,1,178.3,39Z" transform="translate(-80.917 -39)" fill="#3bb0ff"/>
    <path id="Path_96" data-name="Path 96" d="M226.1,39H178.383a6.31,6.31,0,0,0-6.315,6.319v58.4a7.528,7.528,0,0,0,7.526,7.524h31.975Z" transform="translate(-80.974 -39)" fill="#fff" opacity="0.2"/>
    <path id="Path_97" data-name="Path 97" d="M171.946,61.463H282.027v65.931a6.316,6.316,0,0,1-6.315,6.319H178.3a6.319,6.319,0,0,1-6.351-6.319Z" transform="translate(-80.917 -49.571)" fill="#d6e0ea"/>
    <path id="Path_98" data-name="Path 98" d="M281.686,61.463v65.931a3.34,3.34,0,0,1-3.34,3.342H180.959a3.341,3.341,0,0,1-3.34-3.342V61.463Z" transform="translate(-83.587 -49.571)" fill="#f3f9ff"/>
    <path id="Path_99" data-name="Path 99" d="M278.124,132.957V126.5l-4.444-.631A14.18,14.18,0,0,0,272,121.783l2.681-3.587-4.566-4.6-3.584,2.69a14,14,0,0,0-4.079-1.686l-.638-4.425H255.36l-.638,4.425a14,14,0,0,0-4.079,1.686l-3.584-2.69-4.595,4.6,2.688,3.586a13.414,13.414,0,0,0-1.684,4.089l-4.423.631v6.455l4.423.638a13.849,13.849,0,0,0,1.684,4.11l-2.688,3.587,4.595,4.576,3.584-2.689a13.294,13.294,0,0,0,4.079,1.707l.638,4.426h6.451l.638-4.426a13.3,13.3,0,0,0,4.079-1.707l3.584,2.689,4.566-4.576L272,137.7a14.738,14.738,0,0,0,1.685-4.081Zm-19.546,6.556a1.944,1.944,0,1,0,0-.022Z" transform="translate(-112.494 -72.492)" fill="#425160"/>
    <path id="Path_100" data-name="Path 100" d="M258.524,139.478a9.791,9.791,0,0,1,0-19.581v-9.754h-3.218l-.638,4.425a14,14,0,0,0-4.079,1.686l-3.584-2.69-4.594,4.6,2.688,3.586a13.431,13.431,0,0,0-1.685,4.088l-4.422.632v6.455l4.422.638a13.85,13.85,0,0,0,1.685,4.11l-2.688,3.586,4.594,4.576,3.584-2.689a13.294,13.294,0,0,0,4.079,1.707l.638,4.426h3.218Z" transform="translate(-112.468 -72.479)" fill="#3d4959"/>
    <path id="Path_101" data-name="Path 101" d="M333.46,89.421V84.8l-3.175-.452a9.843,9.843,0,0,0-1.2-2.912L331,78.9l-3.254-3.278-2.559,1.915a10.027,10.027,0,0,0-2.91-1.2l-.451-3.149h-4.645l-.452,3.149a10.039,10.039,0,0,0-2.91,1.2l-2.537-1.915L308.007,78.9l1.914,2.539a9.474,9.474,0,0,0-1.2,2.912l-3.154.452v4.619l3.154.452a9.7,9.7,0,0,0,1.2,2.926l-1.914,2.546,3.276,3.256,2.537-1.915a9.5,9.5,0,0,0,2.91,1.219l.452,3.156H321.8l.452-3.156a9.5,9.5,0,0,0,2.91-1.219l2.559,1.915,3.254-3.256-1.914-2.561a10.22,10.22,0,0,0,1.2-2.912Zm-13.934,4.669a6.949,6.949,0,1,1,2.669-.527,6.966,6.966,0,0,1-2.669.527Z" transform="translate(-143.796 -55.086)" fill="#41566d"/>
    <path id="Path_102" data-name="Path 102" d="M219.422,68.332H184.673v2.891h34.749Z" transform="translate(-86.906 -52.804)" fill="#d6e0ea"/>
    <path id="Path_103" data-name="Path 103" d="M219.422,81.23H184.673v2.891h34.749Z" transform="translate(-86.906 -58.873)" fill="#d6e0ea"/>
    <path id="Path_104" data-name="Path 104" d="M219.422,94.128H184.673v2.891h34.749Z" transform="translate(-86.906 -64.943)" fill="#d6e0ea"/>
    <path id="Path_105" data-name="Path 105" d="M211.91,107.026H184.673v2.891H211.91Z" transform="translate(-86.906 -71.013)" fill="#d6e0ea"/>
    <path id="Path_106" data-name="Path 106" d="M211.91,119.925H184.673v2.891H211.91Z" transform="translate(-86.906 -77.083)" fill="#d6e0ea"/>
    <path id="Path_107" data-name="Path 107" d="M326.358,48.28a2.422,2.422,0,1,1-.185-.929,2.43,2.43,0,0,1,.185.929Z" transform="translate(-151.296 -42.226)" fill="#fff"/>
    <path id="Path_108" data-name="Path 108" d="M345.069,48.28a2.424,2.424,0,1,1-.71-1.714A2.429,2.429,0,0,1,345.069,48.28Z" transform="translate(-160.107 -42.226)" fill="#fff"/>
    <path id="Path_109" data-name="Path 109" d="M363.82,48.28a2.423,2.423,0,1,1-.709-1.714A2.425,2.425,0,0,1,363.82,48.28Z" transform="translate(-168.932 -42.226)" fill="#fff"/>
    <path id="Path_110" data-name="Path 110" d="M316.894,176.543a1.936,1.936,0,1,1-.567-1.37A1.936,1.936,0,0,1,316.894,176.543Z" transform="translate(-147.307 -102.815)" fill="#24a7ff"/>
    <path id="Path_111" data-name="Path 111" d="M332.695,176.543a1.942,1.942,0,1,1-.571-1.37,1.94,1.94,0,0,1,.571,1.37Z" transform="translate(-154.736 -102.815)" fill="#24a7ff"/>
    <path id="Path_112" data-name="Path 112" d="M348.583,175.835a2.732,2.732,0,1,1-.8-1.932,2.739,2.739,0,0,1,.8,1.932Z" transform="translate(-161.464 -102.108)" fill="#24a7ff"/>
    <path id="Path_113" data-name="Path 113" d="M364.309,176.543a1.942,1.942,0,1,1-.571-1.37,1.94,1.94,0,0,1,.571,1.37Z" transform="translate(-169.613 -102.815)" fill="#24a7ff"/>
    <path id="Path_114" data-name="Path 114" d="M188,176.543a1.942,1.942,0,1,1-.571-1.37,1.94,1.94,0,0,1,.571,1.37Z" transform="translate(-86.645 -102.815)" fill="#24a7ff"/>
    <path id="Path_115" data-name="Path 115" d="M203.815,176.543a1.936,1.936,0,1,1-.567-1.37,1.935,1.935,0,0,1,.567,1.37Z" transform="translate(-94.093 -102.815)" fill="#24a7ff"/>
    <path id="Path_116" data-name="Path 116" d="M219.615,176.543a1.935,1.935,0,1,1-.566-1.37A1.936,1.936,0,0,1,219.615,176.543Z" transform="translate(-101.528 -102.815)" fill="#24a7ff"/>
    <path id="Path_117" data-name="Path 117" d="M235.417,176.543a1.936,1.936,0,1,1-.567-1.37A1.945,1.945,0,0,1,235.417,176.543Z" transform="translate(-108.957 -102.815)" fill="#24a7ff"/>
    <path id="Path_118" data-name="Path 118" d="M130.341,57.841V52.526L126.693,52a11.485,11.485,0,0,0-1.376-3.35l2.2-2.926-3.741-3.766-2.953,2.2a11.31,11.31,0,0,0-3.347-1.384l-.516-3.629h-5.311l-.524,3.629a11.463,11.463,0,0,0-3.347,1.384l-2.924-2.2-3.763,3.78,2.2,2.926a11.1,11.1,0,0,0-1.383,3.35l-3.627.524v5.315l3.627.516a11.3,11.3,0,0,0,1.383,3.371l-2.2,2.926,3.763,3.751,2.924-2.2a11.121,11.121,0,0,0,3.347,1.4l.524,3.629h5.311l.516-3.629a10.975,10.975,0,0,0,3.347-1.4l2.953,2.2,3.741-3.751-2.2-2.948a11.814,11.814,0,0,0,1.376-3.35Zm-16.027,4a6.628,6.628,0,1,1,2.543-.5,6.649,6.649,0,0,1-2.543.5Z" transform="translate(-46.25 -39.07)" fill="#e4eff7"/>
    <path id="Path_119" data-name="Path 119" d="M446.474,198.786v-4.6l-3.154-.452a9.917,9.917,0,0,0-1.2-2.869l1.907-2.539-3.247-3.264-2.552,1.908a9.923,9.923,0,0,0-2.867-1.2l-.452-3.142h-4.6l-.452,3.142a10.025,10.025,0,0,0-2.867,1.2l-2.53-1.908-3.269,3.264,1.914,2.539a9.38,9.38,0,0,0-1.2,2.869l-3.146.452v4.6l3.146.452a9.7,9.7,0,0,0,1.2,2.912l-1.914,2.539,3.269,3.249,2.53-1.915a9.493,9.493,0,0,0,2.867,1.22l.452,3.141h4.6l.452-3.141a9.41,9.41,0,0,0,2.867-1.22l2.552,1.915,3.247-3.249-1.9-2.553a10.436,10.436,0,0,0,1.2-2.869Zm-13.884,3.457a5.736,5.736,0,1,1,4.055-1.68A5.73,5.73,0,0,1,432.59,202.243Z" transform="translate(-197.068 -106.59)" fill="#dde9f2"/>
    <path id="Path_120" data-name="Path 120" d="M379.281,402.813v-3.048l-2.086-.3a6.36,6.36,0,0,0-.8-1.915l1.268-1.678-2.15-2.152-1.691,1.27a6.368,6.368,0,0,0-1.914-.8l-.3-2.08h-3.039l-.3,2.08a6.439,6.439,0,0,0-1.921.8l-1.67-1.27-2.15,2.152,1.269,1.678a6.19,6.19,0,0,0-.8,1.915l-2.078.3v3.041l2.078.3a6.457,6.457,0,0,0,.8,1.93l-1.269,1.678,2.15,2.152,1.67-1.27a6.34,6.34,0,0,0,1.921.811l.3,2.08h3.039l.3-2.08a6.231,6.231,0,0,0,1.914-.811l1.663,1.276,2.15-2.151-1.269-1.686a6.808,6.808,0,0,0,.8-1.922Zm-9.181,2.295a3.8,3.8,0,1,1,1.457-.288,3.81,3.81,0,0,1-1.457.288Z" transform="translate(-169.849 -205.173)" fill="#e4eff7"/>
    <path id="Path_121" data-name="Path 121" d="M225.967,449.821c0-2.1,1.126-3.3,2.638-3.3s2.63,1.2,2.63,3.3-1.125,3.307-2.63,3.307S225.967,451.909,225.967,449.821Zm4.344,0c0-1.65-.717-2.481-1.706-2.481s-1.713.832-1.713,2.481.717,2.482,1.713,2.482,1.7-.825,1.7-2.482Z" transform="translate(-106.339 -230.778)" fill="#dde9f2"/>
    <path id="Path_122" data-name="Path 122" d="M237.584,449.821c0-2.1,1.125-3.3,2.637-3.3s2.623,1.2,2.623,3.3-1.125,3.307-2.623,3.307S237.584,451.909,237.584,449.821Zm4.3,0c0-1.65-.717-2.481-1.7-2.481s-1.72.832-1.72,2.481.717,2.482,1.72,2.482,1.735-.825,1.735-2.482Z" transform="translate(-111.806 -230.778)" fill="#dde9f2"/>
    <path id="Path_123" data-name="Path 123" d="M250.84,446.651v6.456h-.91v-5.659H248.5v-.8Z" transform="translate(-116.941 -230.835)" fill="#dde9f2"/>
    <path id="Path_124" data-name="Path 124" d="M255.591,449.821c0-2.1,1.125-3.3,2.638-3.3s2.631,1.2,2.631,3.3-1.126,3.307-2.631,3.307S255.591,451.909,255.591,449.821Zm4.343,0c0-1.65-.717-2.481-1.706-2.481s-1.713.832-1.713,2.481.717,2.482,1.713,2.482S259.934,451.478,259.934,449.821Z" transform="translate(-120.28 -230.778)" fill="#dde9f2"/>
    <path id="Path_125" data-name="Path 125" d="M268.892,446.651v6.456h-.875v-5.659h-1.434v-.8Z" transform="translate(-125.453 -230.835)" fill="#dde9f2"/>
    <path id="Path_126" data-name="Path 126" d="M273.611,449.821c0-2.1,1.125-3.3,2.637-3.3s2.624,1.2,2.624,3.3-1.126,3.307-2.624,3.307S273.611,451.909,273.611,449.821Zm4.344,0c0-1.65-.717-2.481-1.706-2.481s-1.72.832-1.72,2.481.717,2.482,1.72,2.482S277.955,451.478,277.955,449.821Z" transform="translate(-128.76 -230.778)" fill="#dde9f2"/>
    <path id="Path_127" data-name="Path 127" d="M286.868,446.651v6.456h-.911v-5.659h-1.433v-.8Z" transform="translate(-133.895 -230.835)" fill="#dde9f2"/>
    <path id="Path_128" data-name="Path 128" d="M40.482,230.541c0-2.646,1.434-4.153,3.311-4.153s3.3,1.506,3.3,4.153-1.434,4.146-3.3,4.146S40.482,233.18,40.482,230.541Zm5.455,0c0-2.073-.882-3.12-2.15-3.12s-2.15,1.047-2.15,3.12.882,3.12,2.15,3.12,2.136-1.047,2.136-3.12Z" transform="translate(-19.051 -127.184)" fill="#dde9f2"/>
    <path id="Path_129" data-name="Path 129" d="M55.05,230.541c0-2.646,1.434-4.153,3.319-4.153s3.3,1.506,3.3,4.153-1.434,4.146-3.3,4.146S55.05,233.18,55.05,230.541Zm5.455,0c0-2.073-.874-3.12-2.15-3.12s-2.15,1.047-2.15,3.12.882,3.12,2.15,3.12S60.5,232.614,60.5,230.541Z" transform="translate(-25.906 -127.184)" fill="#dde9f2"/>
    <path id="Path_130" data-name="Path 130" d="M71.685,226.564v8.112H70.539v-7.1H68.711v-1.011Z" transform="translate(-32.335 -127.267)" fill="#dde9f2"/>
    <path id="Path_131" data-name="Path 131" d="M77.687,230.541c0-2.646,1.434-4.153,3.311-4.153s3.3,1.506,3.3,4.153-1.434,4.146-3.3,4.146S77.687,233.18,77.687,230.541Zm5.455,0c0-2.073-.874-3.12-2.15-3.12s-2.15,1.047-2.15,3.12.882,3.12,2.15,3.12S83.142,232.614,83.142,230.541Z" transform="translate(-36.559 -127.184)" fill="#dde9f2"/>
    <path id="Path_132" data-name="Path 132" d="M94.323,226.564v8.112H93.176v-7.1H91.348v-1.011Z" transform="translate(-42.988 -127.267)" fill="#dde9f2"/>
    <path id="Path_133" data-name="Path 133" d="M102.426,226.564v8.112h-1.147v-7.1H99.445v-1.011Z" transform="translate(-46.798 -127.267)" fill="#dde9f2"/>
    <path id="Path_134" data-name="Path 134" d="M108.421,230.541c0-2.646,1.434-4.153,3.311-4.153s3.3,1.506,3.3,4.153-1.433,4.146-3.3,4.146S108.421,233.18,108.421,230.541Zm5.454,0c0-2.073-.875-3.12-2.15-3.12s-2.15,1.047-2.15,3.12.881,3.12,2.15,3.12,2.15-1.047,2.15-3.12Z" transform="translate(-51.022 -127.184)" fill="#dde9f2"/>
    <path id="Path_135" data-name="Path 135" d="M123.07,230.541c0-2.646,1.434-4.153,3.311-4.153s3.3,1.506,3.3,4.153-1.434,4.146-3.3,4.146S123.07,233.18,123.07,230.541Zm5.454,0c0-2.073-.881-3.12-2.15-3.12s-2.15,1.047-2.15,3.12.881,3.12,2.15,3.12,2.129-1.047,2.129-3.12Z" transform="translate(-57.916 -127.184)" fill="#dde9f2"/>
    <path id="Path_136" data-name="Path 136" d="M137.625,230.541c0-2.646,1.434-4.153,3.311-4.153s3.3,1.506,3.3,4.153-1.433,4.146-3.3,4.146S137.625,233.18,137.625,230.541Zm5.454,0c0-2.073-.875-3.12-2.15-3.12s-2.15,1.047-2.15,3.12.881,3.12,2.15,3.12S143.079,232.614,143.079,230.541Z" transform="translate(-64.766 -127.184)" fill="#dde9f2"/>
    <path id="Path_137" data-name="Path 137" d="M154.274,226.564v8.112h-1.147v-7.1H151.3v-1.011Z" transform="translate(-71.2 -127.267)" fill="#dde9f2"/>
    <path id="Path_138" data-name="Path 138" d="M160.262,230.541c0-2.646,1.434-4.153,3.311-4.153s3.3,1.506,3.3,4.153-1.434,4.146-3.3,4.146S160.262,233.18,160.262,230.541Zm5.454,0c0-2.073-.881-3.12-2.15-3.12s-2.15,1.047-2.15,3.12.881,3.12,2.15,3.12S165.716,232.614,165.716,230.541Z" transform="translate(-75.418 -127.184)" fill="#dde9f2"/>
    <path id="Path_139" data-name="Path 139" d="M176.9,226.564v8.112h-1.147v-7.1h-1.828v-1.011Z" transform="translate(-81.847 -127.267)" fill="#dde9f2"/>
    <path id="Path_140" data-name="Path 140" d="M281.884,248.56c0-2.647,1.433-4.153,3.311-4.153s3.3,1.506,3.3,4.153-1.434,4.146-3.3,4.146S281.884,251.2,281.884,248.56Zm5.454,0c0-2.08-.882-3.12-2.15-3.12s-2.15,1.04-2.15,3.12.882,3.113,2.15,3.113S287.338,250.64,287.338,248.56Z" transform="translate(-132.653 -135.663)" fill="#dde9f2"/>
    <path id="Path_141" data-name="Path 141" d="M298.519,244.583V252.7h-1.147v-7.1h-1.828v-1.012Z" transform="translate(-139.081 -135.746)" fill="#dde9f2"/>
    <path id="Path_142" data-name="Path 142" d="M306.616,244.583V252.7h-1.147v-7.1h-1.828v-1.012Z" transform="translate(-142.892 -135.746)" fill="#dde9f2"/>
    <path id="Path_143" data-name="Path 143" d="M312.617,248.56c0-2.647,1.434-4.153,3.311-4.153s3.3,1.506,3.3,4.153-1.434,4.146-3.3,4.146S312.617,251.2,312.617,248.56Zm5.454,0c0-2.08-.881-3.12-2.15-3.12s-2.15,1.04-2.15,3.12.875,3.113,2.15,3.113S318.071,250.64,318.071,248.56Z" transform="translate(-147.116 -135.663)" fill="#dde9f2"/>
    <path id="Path_144" data-name="Path 144" d="M327.212,248.56c0-2.647,1.434-4.153,3.319-4.153s3.3,1.506,3.3,4.153-1.434,4.146-3.3,4.146S327.212,251.2,327.212,248.56Zm5.462,0c0-2.08-.881-3.12-2.15-3.12s-2.15,1.04-2.15,3.12.881,3.113,2.15,3.113S332.674,250.64,332.674,248.56Z" transform="translate(-153.984 -135.663)" fill="#dde9f2"/>
    <path id="Path_145" data-name="Path 145" d="M341.821,248.56c0-2.647,1.434-4.153,3.311-4.153s3.3,1.506,3.3,4.153-1.434,4.146-3.3,4.146S341.821,251.2,341.821,248.56Zm5.454,0c0-2.08-.881-3.12-2.15-3.12s-2.15,1.04-2.15,3.12.881,3.113,2.15,3.113S347.275,250.64,347.275,248.56Z" transform="translate(-160.859 -135.663)" fill="#dde9f2"/>
    <path id="Path_146" data-name="Path 146" d="M391.494,66.611a1.936,1.936,0,1,1-.567-1.369,1.94,1.94,0,0,1,.567,1.369Z" transform="translate(-182.414 -51.082)" fill="#dde9f2"/>
    <path id="Path_147" data-name="Path 147" d="M407.295,66.611a1.935,1.935,0,1,1-.566-1.369,1.944,1.944,0,0,1,.566,1.369Z" transform="translate(-189.843 -51.082)" fill="#dde9f2"/>
    <path id="Path_148" data-name="Path 148" d="M423.2,65.9a2.739,2.739,0,1,1-.8-1.937A2.739,2.739,0,0,1,423.2,65.9Z" transform="translate(-196.577 -50.368)" fill="#dde9f2"/>
    <path id="Path_149" data-name="Path 149" d="M438.909,66.611a1.935,1.935,0,1,1-.566-1.369,1.94,1.94,0,0,1,.566,1.369Z" transform="translate(-204.72 -51.082)" fill="#dde9f2"/>
    <path id="Path_150" data-name="Path 150" d="M176.956,395.58a1.937,1.937,0,1,1,.148.743,1.944,1.944,0,0,1-.148-.743Z" transform="translate(-83.274 -205.886)" fill="#dde9f2"/>
    <path id="Path_151" data-name="Path 151" d="M161.156,395.593a1.935,1.935,0,1,1,.566,1.37A1.935,1.935,0,0,1,161.156,395.593Z" transform="translate(-75.839 -205.899)" fill="#dde9f2"/>
    <path id="Path_152" data-name="Path 152" d="M143.839,394.878a2.739,2.739,0,1,1,.8,1.938,2.739,2.739,0,0,1-.8-1.938Z" transform="translate(-67.69 -205.185)" fill="#dde9f2"/>
    <path id="Path_153" data-name="Path 153" d="M129.542,395.58a1.936,1.936,0,1,1,.567,1.37A1.941,1.941,0,0,1,129.542,395.58Z" transform="translate(-60.962 -205.887)" fill="#dde9f2"/>
    <path id="Path_154" data-name="Path 154" d="M363.132,263.2h-3.29v1.943h3.29Z" transform="translate(-169.34 -144.507)" fill="#55738e"/>
    <path id="Path_155" data-name="Path 155" d="M363.132,256.3h-3.29v1.944h3.29Z" transform="translate(-169.34 -141.261)" fill="#55738e"/>
    <path id="Path_156" data-name="Path 156" d="M363.132,249.406h-3.29v1.944h3.29Z" transform="translate(-169.34 -138.016)" fill="#55738e"/>
    <path id="Path_157" data-name="Path 157" d="M363.132,242.51h-3.29v1.944h3.29Z" transform="translate(-169.34 -134.771)" fill="#55738e"/>
    <path id="Path_158" data-name="Path 158" d="M363.132,235.614h-3.29v1.944h3.29Z" transform="translate(-169.34 -131.525)" fill="#55738e"/>
    <path id="Path_159" data-name="Path 159" d="M363.132,228.718h-3.29v1.944h3.29Z" transform="translate(-169.34 -128.28)" fill="#55738e"/>
    <path id="Path_160" data-name="Path 160" d="M363.132,221.822h-3.29v1.944h3.29Z" transform="translate(-169.34 -125.035)" fill="#55738e"/>
    <path id="Path_161" data-name="Path 161" d="M363.132,214.926h-3.29v1.943h3.29Z" transform="translate(-169.34 -121.79)" fill="#55738e"/>
    <path id="Path_162" data-name="Path 162" d="M363.132,208.03h-3.29v1.943h3.29Z" transform="translate(-169.34 -118.545)" fill="#55738e"/>
    <path id="Path_163" data-name="Path 163" d="M363.132,201.134h-3.29v1.943h3.29Z" transform="translate(-169.34 -115.299)" fill="#55738e"/>
    <path id="Path_164" data-name="Path 164" d="M276.129,263.2h-3.29v1.943h3.29Z" transform="translate(-128.396 -144.507)" fill="#55738e"/>
    <path id="Path_165" data-name="Path 165" d="M276.129,256.3h-3.29v1.944h3.29Z" transform="translate(-128.396 -141.261)" fill="#55738e"/>
    <path id="Path_166" data-name="Path 166" d="M276.129,249.406h-3.29v1.944h3.29Z" transform="translate(-128.396 -138.016)" fill="#55738e"/>
    <path id="Path_167" data-name="Path 167" d="M276.129,242.51h-3.29v1.944h3.29Z" transform="translate(-128.396 -134.771)" fill="#55738e"/>
    <path id="Path_168" data-name="Path 168" d="M276.129,235.614h-3.29v1.944h3.29Z" transform="translate(-128.396 -131.525)" fill="#55738e"/>
    <path id="Path_169" data-name="Path 169" d="M276.129,228.718h-3.29v1.944h3.29Z" transform="translate(-128.396 -128.28)" fill="#55738e"/>
    <path id="Path_170" data-name="Path 170" d="M276.129,221.822h-3.29v1.944h3.29Z" transform="translate(-128.396 -125.035)" fill="#55738e"/>
    <path id="Path_171" data-name="Path 171" d="M276.129,214.926h-3.29v1.943h3.29Z" transform="translate(-128.396 -121.79)" fill="#55738e"/>
    <path id="Path_172" data-name="Path 172" d="M276.129,208.03h-3.29v1.943h3.29Z" transform="translate(-128.396 -118.545)" fill="#55738e"/>
    <path id="Path_173" data-name="Path 173" d="M276.129,201.134h-3.29v1.943h3.29Z" transform="translate(-128.396 -115.299)" fill="#55738e"/>
    <path id="Path_174" data-name="Path 174" d="M189.114,263.2h-3.29v1.943h3.29Z" transform="translate(-87.448 -144.507)" fill="#55738e"/>
    <path id="Path_175" data-name="Path 175" d="M189.114,256.3h-3.29v1.944h3.29Z" transform="translate(-87.448 -141.261)" fill="#55738e"/>
    <path id="Path_176" data-name="Path 176" d="M189.114,249.406h-3.29v1.944h3.29Z" transform="translate(-87.448 -138.016)" fill="#55738e"/>
    <path id="Path_177" data-name="Path 177" d="M189.114,242.51h-3.29v1.944h3.29Z" transform="translate(-87.448 -134.771)" fill="#55738e"/>
    <path id="Path_178" data-name="Path 178" d="M189.114,235.614h-3.29v1.944h3.29Z" transform="translate(-87.448 -131.525)" fill="#55738e"/>
    <path id="Path_179" data-name="Path 179" d="M189.114,228.718h-3.29v1.944h3.29Z" transform="translate(-87.448 -128.28)" fill="#55738e"/>
    <path id="Path_180" data-name="Path 180" d="M189.114,221.822h-3.29v1.944h3.29Z" transform="translate(-87.448 -125.035)" fill="#55738e"/>
    <path id="Path_181" data-name="Path 181" d="M189.114,214.926h-3.29v1.943h3.29Z" transform="translate(-87.448 -121.79)" fill="#55738e"/>
    <path id="Path_182" data-name="Path 182" d="M189.114,208.03h-3.29v1.943h3.29Z" transform="translate(-87.448 -118.545)" fill="#55738e"/>
    <path id="Path_183" data-name="Path 183" d="M189.114,201.134h-3.29v1.943h3.29Z" transform="translate(-87.448 -115.299)" fill="#55738e"/>
  </g>
</svg>
