<svg xmlns="http://www.w3.org/2000/svg" xmlns:xlink="http://www.w3.org/1999/xlink" width="25.412" height="32.294" viewBox="0 0 25.412 32.294">
  <defs>
    <linearGradient id="linear-gradient" x1="0.106" y1="0.114" x2="0.878" y2="0.727" gradientUnits="objectBoundingBox">
      <stop offset="0" stop-color="#08b8f7"/>
      <stop offset="1" stop-color="#0566eb"/>
    </linearGradient>
  </defs>
  <path id="vps" d="M535.428,884.551l-.74.163v.984a3.873,3.873,0,0,1-2.541,3.654V892a1.271,1.271,0,1,1-2.542,0v-2.65a3.873,3.873,0,0,1-2.541-3.654v-.912c-.11-.022-.221-.046-.331-.07l-.75-.165a9.942,9.942,0,0,1-7.474-7.335,17.091,17.091,0,0,1,0-8.283,9.943,9.943,0,0,1,7.474-7.335l.75-.165a18.468,18.468,0,0,1,7.945,0l.75.165a9.943,9.943,0,0,1,7.474,7.335,17.089,17.089,0,0,1,0,8.283A9.942,9.942,0,0,1,535.428,884.551Zm-3.281.542c-.148.012-.295.021-.443.029a18.4,18.4,0,0,1-2.1-.006v.582a1.271,1.271,0,1,0,2.542,0Zm.042-17.148a1.044,1.044,0,0,1,.159,1.452l-2.067,2.627h2.968a1.015,1.015,0,0,1,.916.586,1.048,1.048,0,0,1-.123,1.093l-3.388,4.306a1.006,1.006,0,0,1-1.429.161,1.046,1.046,0,0,1-.159-1.453l2.067-2.627h-2.968a1.014,1.014,0,0,1-.916-.586,1.047,1.047,0,0,1,.122-1.093l3.388-4.306A1,1,0,0,1,532.188,867.944Z" transform="translate(-518 -861)" fill-rule="evenodd" fill="url(#linear-gradient)"/>
</svg>
