<svg xmlns="http://www.w3.org/2000/svg" xmlns:xlink="http://www.w3.org/1999/xlink" width="25.412" height="25.412" viewBox="0 0 25.412 25.412">
  <defs>
    <linearGradient id="linear-gradient" x1="0.5" x2="0.5" y2="1" gradientUnits="objectBoundingBox">
      <stop offset="0" stop-color="#08b8f7"/>
      <stop offset="1" stop-color="#0566eb"/>
    </linearGradient>
  </defs>
  <path id="wordpress-hosting" d="M768.512,769.485a18.349,18.349,0,0,1,8.387,0,10.771,10.771,0,0,1,8.027,8.027,18.349,18.349,0,0,1,0,8.387,10.771,10.771,0,0,1-8.027,8.027,18.349,18.349,0,0,1-8.387,0,10.771,10.771,0,0,1-8.027-8.027,18.349,18.349,0,0,1,0-8.387A10.771,10.771,0,0,1,768.512,769.485Zm6.3,9.414a.541.541,0,0,1,.7.7l-1.1,2.754a1.893,1.893,0,0,1-1.054,1.054l-2.754,1.1a.54.54,0,0,1-.7-.7l1.1-2.754A1.891,1.891,0,0,1,772.056,780Zm2.209,1.3a2.162,2.162,0,0,0-2.811-2.811l-2.754,1.1a3.515,3.515,0,0,0-1.958,1.958l-1.1,2.754a2.162,2.162,0,0,0,2.811,2.811l2.754-1.1a3.514,3.514,0,0,0,1.957-1.958Z" transform="translate(-760 -769)" fill-rule="evenodd" fill="url(#linear-gradient)"/>
</svg>
